<?xml version="1.0" standalone="no"?>
<!DOCTYPE svg PUBLIC "-//W3C//DTD SVG 20010904//EN"
 "http://www.w3.org/TR/2001/REC-SVG-20010904/DTD/svg10.dtd">
<svg version="1.0" xmlns="http://www.w3.org/2000/svg"
 width="287.710431pt" height="302.820941pt" viewBox="0 0 287.710431 302.820941"
 preserveAspectRatio="xMidYMid meet">
<metadata>
Created by potrace 1.12, written by Peter Selinger 2001-2015
</metadata>
<g transform="translate(-124.340030,386.609928) scale(0.100000,-0.100000)"
fill="#000000" stroke="none">
<path d="M3220 3846 c-153 -30 -298 -66 -410 -104 -94 -32 -258 -100 -277
-115 -10 -7 -13 -102 -13 -416 0 -472 -21 -1104 -57 -1729 l-6 -113 84 37 c46
20 102 43 124 51 22 7 115 46 206 85 l166 72 7 119 c3 66 6 195 6 286 0 91 3
183 6 203 l7 38 42 -93 c23 -50 93 -204 155 -342 62 -137 115 -252 117 -254 8
-10 534 267 540 285 4 11 -243 425 -386 649 l-82 128 70 71 c281 285 383 706
238 979 -37 71 -111 139 -175 162 -78 28 -217 28 -362 1z m327 -111 c52 -22
99 -80 125 -155 19 -54 23 -85 23 -185 0 -109 -3 -129 -33 -222 -58 -177 -163
-333 -300 -448 -40 -32 -72 -63 -72 -69 0 -5 44 -77 98 -160 111 -170 362
-582 362 -594 0 -4 -60 -38 -133 -76 -72 -38 -143 -78 -157 -88 l-24 -19 -18
35 c-37 73 -251 562 -275 630 -14 39 -33 100 -44 135 -10 35 -20 66 -23 68 -2
2 -33 -10 -69 -28 l-65 -32 -6 -226 c-3 -124 -9 -312 -12 -416 l-6 -191 -72
-29 c-39 -15 -113 -49 -164 -73 -51 -25 -95 -43 -97 -40 -3 2 2 139 10 304 26
549 37 896 39 1297 l2 398 45 20 c165 74 425 146 664 183 50 7 164 -3 202 -19z"/>
<path d="M3215 3430 c-33 -5 -96 -15 -140 -23 l-80 -13 -6 -45 c-11 -68 -32
-560 -25 -567 8 -7 87 13 136 35 94 44 303 248 358 351 62 116 49 213 -31 247
-45 19 -140 25 -212 15z m163 -153 c4 -36 -27 -86 -103 -166 -61 -65 -173
-157 -181 -149 -2 3 -1 75 3 162 7 184 -2 171 136 184 111 10 141 4 145 -31z"/>
<path d="M1827 3615 c-280 -68 -510 -125 -512 -127 -5 -5 -76 -2280 -71 -2285
6 -6 349 97 864 260 l192 61 -6 105 c-3 58 -10 133 -15 166 -5 33 -9 88 -9
123 0 46 -3 62 -14 62 -8 0 -76 -20 -153 -44 -162 -51 -216 -66 -233 -66 -11
0 -12 41 -7 207 4 113 9 208 11 210 2 3 244 49 365 70 l34 6 -7 226 c-4 124
-9 227 -10 228 -1 1 -65 -11 -141 -26 -77 -16 -164 -32 -194 -35 l-54 -7 6
152 c4 84 7 178 7 209 l0 58 83 11 c122 18 306 51 332 61 25 9 25 12 45 290 5
74 13 152 16 173 5 28 3 37 -7 36 -8 -1 -243 -56 -522 -124z m398 -52 c-3 -15
-10 -69 -14 -120 -5 -51 -10 -96 -13 -98 -5 -5 -264 -47 -370 -60 -55 -7 -58
-9 -62 -39 -8 -53 -28 -637 -22 -643 5 -6 85 10 291 56 50 11 96 20 103 21 9
0 12 -28 12 -108 l0 -109 -190 -33 c-105 -19 -195 -37 -200 -40 -8 -5 -37
-687 -29 -695 2 -2 56 14 119 36 258 87 302 100 308 94 3 -3 6 -53 7 -111 l0
-106 -330 -102 c-181 -57 -363 -115 -402 -129 l-73 -27 0 48 c0 90 62 1997 65
2000 5 5 767 190 789 191 15 1 17 -4 11 -26z"/>
<path d="M2677 1330 c-753 -115 -1371 -211 -1374 -214 -4 -4 18 -171 33 -250
l6 -28 67 6 c59 6 2493 371 2649 398 l63 10 -6 37 c-4 20 -12 68 -20 106 -7
39 -16 87 -20 108 -3 20 -11 37 -18 36 -7 -1 -628 -95 -1380 -209z"/>
</g>
</svg>
